<svg width="24" height="24" viewBox="0 0 24 24" fill="none" xmlns="http://www.w3.org/2000/svg">
<g opacity="0.3">
<path d="M11.96 19.7C7.55001 19.7 4.36001 16.47 2.85001 14.55C1.66001 13.03 1.7 10.94 2.95 9.46C4.93 7.11 8.12 4.31 12.01 4.31C15.9 4.31 19.09 7.12 21.06 9.49C22.29 10.97 22.31 13.13 21.1 14.62C19.22 16.94 16.11 19.71 11.97 19.71L11.96 19.7ZM12.01 6.31C8.89 6.31 6.19 8.73 4.48 10.75C3.85 11.5 3.83 12.55 4.43 13.32C5.72 14.96 8.41001 17.71 11.97 17.71C15.33 17.71 17.95 15.35 19.55 13.36C20.17 12.6 20.16 11.53 19.52 10.77C18.13 9.11 15.32 6.31 12.01 6.31Z" fill="white"/>
<path d="M12 16C9.79 16 8 14.21 8 12C8 9.79 9.79 8 12 8C14.21 8 16 9.79 16 12C16 14.21 14.21 16 12 16ZM12 10C10.9 10 10 10.9 10 12C10 13.1 10.9 14 12 14C13.1 14 14 13.1 14 12C14 10.9 13.1 10 12 10Z" fill="white"/>
</g>
</svg>
