<svg width="24" height="24" viewBox="0 0 24 24" fill="none" xmlns="http://www.w3.org/2000/svg">
<g opacity="0.3">
<path d="M19.8099 18.35L16.9099 15.45C17.9999 14.05 18.5899 12.34 18.5899 10.54C18.5899 8.38999 17.7499 6.37 16.2299 4.85C13.0999 1.71 7.98988 1.71 4.85988 4.85C1.71988 7.99 1.71988 13.09 4.85988 16.22C6.37988 17.74 8.39988 18.58 10.5499 18.58C12.3699 18.58 14.0999 17.97 15.4999 16.87L18.3999 19.77C18.5999 19.97 18.8499 20.06 19.1099 20.06C19.3699 20.06 19.6199 19.96 19.8199 19.77C20.2099 19.38 20.2099 18.75 19.8199 18.36L19.8099 18.35ZM6.26988 14.81C3.90988 12.45 3.90988 8.61999 6.26988 6.26999C7.44988 5.08999 8.99988 4.49999 10.5399 4.49999C12.0799 4.49999 13.6299 5.08999 14.8099 6.26999C15.9899 7.44999 16.5799 8.92999 16.5799 10.54C16.5799 12.15 15.9499 13.67 14.8099 14.81C13.6699 15.95 12.1499 16.58 10.5399 16.58C8.92988 16.58 7.40988 15.95 6.26988 14.81V14.81Z" fill="white"/>
</g>
</svg>
